<svg xmlns="http://www.w3.org/2000/svg" xmlns:xlink="http://www.w3.org/1999/xlink" width="55px" height="55px">
    <path fill-rule="evenodd" fill="rgb(255, 255, 255)" d="M52.910,32.230 C51.515,33.853 49.790,34.823 47.740,35.149 L47.740,47.564 C47.740,48.793 47.347,49.881 46.573,50.825 C45.791,51.767 44.805,52.357 43.619,52.604 L43.619,53.712 C43.612,54.051 43.467,54.371 43.218,54.600 C42.978,54.855 42.644,54.999 42.295,55.001 C41.953,55.003 41.627,54.857 41.403,54.600 C41.169,54.363 41.037,54.045 41.033,53.712 L41.033,52.667 L13.965,52.667 L13.965,53.712 C13.962,54.045 13.829,54.363 13.596,54.600 C13.361,54.862 13.024,55.008 12.673,55.001 C12.321,55.008 11.984,54.862 11.749,54.600 C11.516,54.363 11.384,54.045 11.380,53.712 L11.380,52.604 C10.217,52.375 9.171,51.743 8.426,50.821 C7.659,49.910 7.245,48.754 7.259,47.564 L7.259,35.149 C5.237,34.840 3.398,33.802 2.089,32.230 C0.713,30.661 -0.032,28.636 -0.001,26.549 C-0.001,24.377 0.718,22.471 2.152,20.833 C3.586,19.195 5.373,18.232 7.506,17.946 C8.053,13.162 10.300,8.733 13.840,5.468 C17.737,1.822 22.333,-0.001 27.621,-0.001 C32.748,-0.001 37.231,1.720 41.065,5.162 C44.824,8.454 47.208,13.040 47.744,18.008 C49.790,18.334 51.515,19.305 52.910,20.924 C54.300,22.542 55.000,24.420 55.000,26.549 C55.000,28.718 54.300,30.616 52.910,32.230 L52.910,32.230 ZM50.694,30.910 C51.862,29.774 52.508,28.206 52.478,26.577 C52.478,24.879 51.880,23.434 50.694,22.247 C49.586,21.094 48.051,20.448 46.451,20.464 C44.766,20.464 43.340,21.057 42.169,22.247 C41.022,23.387 40.371,24.933 40.358,26.549 L40.480,27.653 L40.480,42.402 C40.489,42.747 40.356,43.081 40.112,43.325 C39.867,43.569 39.533,43.701 39.187,43.690 L15.812,43.690 C15.466,43.702 15.130,43.571 14.885,43.327 C14.639,43.083 14.505,42.748 14.515,42.402 L14.515,27.657 L14.641,26.553 C14.626,24.936 13.974,23.390 12.826,22.252 C11.713,21.087 10.163,20.440 8.552,20.468 C6.910,20.468 5.495,21.061 4.309,22.252 C3.140,23.386 2.493,24.952 2.521,26.581 C2.521,28.282 3.114,29.724 4.305,30.914 C5.495,32.105 6.910,32.698 8.548,32.698 C8.894,32.686 9.229,32.817 9.475,33.061 C9.721,33.305 9.854,33.640 9.844,33.986 L9.781,36.265 L9.781,47.568 C9.781,48.263 10.029,48.860 10.520,49.351 C11.007,49.842 11.675,50.109 12.366,50.090 L42.633,50.090 C43.324,50.109 43.992,49.842 44.479,49.351 C44.961,48.884 45.228,48.239 45.217,47.568 L45.217,36.261 L45.155,33.986 C45.145,33.641 45.278,33.307 45.523,33.063 C45.767,32.819 46.102,32.687 46.447,32.698 C48.089,32.698 49.504,32.105 50.690,30.914 L50.694,30.910 ZM10.088,18.064 C12.099,18.394 13.781,19.368 15.132,20.986 C16.488,22.605 17.163,24.459 17.163,26.549 L17.163,26.667 L17.100,27.775 L17.100,35.396 L37.898,35.396 L37.898,27.775 L37.832,26.675 L37.832,26.553 C37.832,24.420 38.527,22.546 39.922,20.927 C41.316,19.309 43.061,18.334 45.151,18.008 C44.577,13.628 42.621,9.951 39.277,6.977 C35.938,4.007 32.053,2.518 27.617,2.518 C23.190,2.518 19.304,4.003 15.961,6.973 C12.688,9.811 10.594,13.769 10.088,18.071 L10.088,18.064 ZM17.100,41.172 L37.898,41.172 L37.898,37.978 L17.100,37.978 L17.100,41.172 Z"/>
</svg>