<svg xmlns="http://www.w3.org/2000/svg" xmlns:xlink="http://www.w3.org/1999/xlink" width="63px" height="54px">
    <path fill-rule="evenodd" fill="rgb(255, 255, 255)" d="M62.171,53.999 L0.829,53.999 C0.371,53.999 -0.000,53.635 -0.000,53.183 L-0.000,51.547 C-0.000,51.093 0.371,50.729 0.829,50.729 L4.974,50.729 L4.974,3.272 C4.974,1.466 6.457,-0.001 8.289,-0.001 L39.789,-0.001 C41.620,-0.001 43.105,1.466 43.105,3.272 L43.105,11.454 L54.710,11.454 C56.541,11.454 58.026,12.921 58.026,14.727 L58.026,50.729 L62.171,50.729 C62.629,50.729 63.000,51.093 63.000,51.547 L63.000,53.183 C63.000,53.635 62.629,53.999 62.171,53.999 L62.171,53.999 ZM18.237,50.729 L29.842,50.729 L29.842,34.363 L18.237,34.363 L18.237,50.729 ZM39.789,50.727 L39.789,3.272 L8.289,3.272 L8.289,50.729 L14.921,50.729 L14.921,34.365 C14.921,32.557 16.405,31.092 18.237,31.092 L29.842,31.092 C31.672,31.092 33.158,32.557 33.158,34.365 L33.158,50.729 L39.789,50.729 L39.789,50.727 ZM54.710,14.727 L43.105,14.727 L43.105,50.729 L54.710,50.729 L54.710,14.727 ZM13.263,22.090 L13.263,20.454 C13.263,20.003 13.635,19.636 14.092,19.636 L33.987,19.636 C34.445,19.636 34.816,20.003 34.816,20.454 L34.816,22.090 C34.816,22.542 34.445,22.908 33.987,22.908 L14.092,22.908 C13.635,22.908 13.263,22.542 13.263,22.090 L13.263,22.090 ZM33.987,13.090 L14.092,13.090 C13.635,13.090 13.263,12.726 13.263,12.274 L13.263,10.637 C13.263,10.185 13.635,9.819 14.092,9.819 L33.987,9.819 C34.445,9.819 34.816,10.185 34.816,10.637 L34.816,12.274 C34.816,12.726 34.445,13.090 33.987,13.090 L33.987,13.090 Z"/>
</svg>