<svg xmlns="http://www.w3.org/2000/svg" xmlns:xlink="http://www.w3.org/1999/xlink" width="52px" height="52px">
    <path fill-rule="evenodd" fill="rgb(255, 255, 255)" d="M50.529,19.412 C51.342,19.412 52.000,20.070 52.000,20.882 L52.000,31.471 C52.000,37.146 47.382,41.765 41.706,41.765 L27.471,41.765 L27.471,50.529 C27.471,51.341 26.812,52.000 26.000,52.000 C25.188,52.000 24.529,51.341 24.529,50.529 L24.529,41.765 L10.294,41.765 C4.618,41.765 -0.000,37.146 -0.000,31.471 L-0.000,10.294 C-0.000,4.618 4.618,-0.001 10.294,-0.001 L41.706,-0.001 C47.382,-0.001 52.000,4.618 52.000,10.294 C52.000,11.106 51.342,11.765 50.529,11.765 C49.717,11.765 49.059,11.106 49.059,10.294 C49.059,6.240 45.761,2.941 41.706,2.941 L10.294,2.941 C6.240,2.941 2.941,6.240 2.941,10.294 L2.941,31.471 C2.941,35.525 6.240,38.823 10.294,38.823 L41.706,38.823 C45.761,38.823 49.059,35.525 49.059,31.471 L49.059,20.882 C49.059,20.070 49.717,19.412 50.529,19.412 ZM19.078,43.548 C19.652,42.974 20.583,42.974 21.158,43.548 C21.732,44.123 21.732,45.054 21.158,45.628 L15.275,51.511 C14.988,51.798 14.612,51.942 14.235,51.942 C13.859,51.942 13.483,51.798 13.196,51.511 C12.621,50.937 12.621,50.005 13.196,49.431 L19.078,43.548 ZM32.922,43.548 L38.805,49.431 C39.379,50.005 39.379,50.937 38.805,51.511 C38.518,51.798 38.141,51.942 37.765,51.942 C37.388,51.942 37.012,51.798 36.725,51.511 L30.843,45.628 C30.268,45.054 30.268,44.123 30.843,43.548 C31.417,42.974 32.348,42.974 32.922,43.548 Z"/>
</svg>