<svg xmlns="http://www.w3.org/2000/svg" xmlns:xlink="http://www.w3.org/1999/xlink" width="54px" height="54px">
    <path fill-rule="evenodd" fill="rgb(255, 255, 255)" d="M54.000,26.999 C54.000,41.911 41.912,53.999 27.000,53.999 C12.088,53.999 -0.000,41.911 -0.000,26.999 C-0.000,12.087 12.088,-0.001 27.000,-0.001 C41.912,-0.001 54.000,12.087 54.000,26.999 L54.000,26.999 ZM50.885,26.999 C50.885,13.808 40.193,3.114 27.000,3.114 C13.809,3.114 3.115,13.808 3.115,26.999 C3.115,40.192 13.809,50.883 27.000,50.883 C40.193,50.883 50.885,40.192 50.885,26.999 L50.885,26.999 ZM28.448,15.707 L34.107,25.348 L41.970,25.348 C44.575,25.348 46.639,27.526 46.639,30.166 C46.639,32.808 44.575,34.991 41.972,34.991 L10.212,34.991 L7.657,21.491 L13.552,21.491 L16.586,25.348 L22.499,25.348 L18.746,15.707 L28.448,15.707 ZM26.664,18.822 L23.303,18.822 L25.405,24.218 L27.056,28.463 L15.074,28.463 L14.140,27.275 L12.038,24.607 L11.417,24.607 L12.794,31.876 L41.975,31.876 C42.828,31.876 43.524,31.111 43.524,30.168 C43.524,29.228 42.826,28.463 41.970,28.463 L32.321,28.463 L31.420,26.924 L26.664,18.822 Z"/>
</svg>